<?xml version="1.0" encoding="UTF-8" standalone="no"?>
<svg
   xmlns:dc="http://purl.org/dc/elements/1.1/"
   xmlns:cc="http://creativecommons.org/ns#"
   xmlns:rdf="http://www.w3.org/1999/02/22-rdf-syntax-ns#"
   xmlns:svg="http://www.w3.org/2000/svg"
   xmlns="http://www.w3.org/2000/svg"
   xmlns:sodipodi="http://sodipodi.sourceforge.net/DTD/sodipodi-0.dtd"
   xmlns:inkscape="http://www.inkscape.org/namespaces/inkscape"
   version="1.1"
   id="Layer_1"
   x="0px"
   y="0px"
   width="50"
   height="50"
   viewBox="0 0 50 50"
   enable-background="new 0 0 100 100"
   xml:space="preserve"
   inkscape:version="0.91pre2 r13516"
   sodipodi:docname="FileReceiveAdapter.svg"><metadata
     id="metadata9"><rdf:RDF><cc:Work
         rdf:about=""><dc:format>image/svg+xml</dc:format><dc:type
           rdf:resource="http://purl.org/dc/dcmitype/StillImage" /><dc:title></dc:title></cc:Work></rdf:RDF></metadata><defs
     id="defs7" /><sodipodi:namedview
     pagecolor="#ffffff"
     bordercolor="#666666"
     borderopacity="1"
     objecttolerance="10"
     gridtolerance="10"
     guidetolerance="10"
     inkscape:pageopacity="0"
     inkscape:pageshadow="2"
     inkscape:window-width="1600"
     inkscape:window-height="837"
     id="namedview5"
     showgrid="false"
     inkscape:zoom="9.44"
     inkscape:cx="18.009556"
     inkscape:cy="29.460751"
     inkscape:window-x="-8"
     inkscape:window-y="-8"
     inkscape:window-maximized="1"
     inkscape:current-layer="Layer_1" /><path
     d="M 49.165877,5.8517067 C 48.554197,5.1376665 47.578789,4.8887214 46.479654,5.2266109 l -5.930956,1.8355355 0.04422,-0.4949089 c 0.04472,-0.3592561 0.08596,-1.3460925 -0.62112,-2.1893258 -0.394536,-0.4705608 -1.145346,-1.03106 -2.475538,-1.03106 -0.298636,0 -0.621618,0.02882 -0.95901,0.084473 C 34.352896,3.7955491 23.784406,6.4797838 20.739921,7.2569298 L 16.399034,3.7160458 C 16.038784,3.421883 15.571205,3.2951744 15.110582,3.3657337 L 6.0814765,4.7620127 C 5.5960086,4.8370441 5.1701683,5.125244 4.9197326,5.547606 l -4.61865249,7.798789 c -0.1947834,0.329444 -0.26882098,0.716029 -0.20869651,1.094166 0.01291932,0.081 1.3043531,8.196805 2.8298253,16.283794 2.8670924,15.193106 4.0164139,17.28007 5.0683436,17.807278 0.069565,0.05218 0.1450939,0.101367 0.2285724,0.146088 0.3443493,0.200745 0.7503137,0.307081 1.1741664,0.307081 0.6529217,0 1.3495707,-0.240497 2.1287037,-0.73491 0.002,-0.002 0.0064,-0.0049 0.01094,-0.008 0.124721,-0.07354 0.251429,-0.152548 0.352796,-0.220623 3.492188,-2.164978 27.077875,-16.59336 27.315391,-16.738951 0.285715,-0.174907 0.511306,-0.432796 0.646959,-0.739878 L 49.594698,8.3799157 C 49.65184,8.249232 49.69259,8.1105979 49.71445,7.9694792 49.760657,7.6758135 49.855072,6.6556851 49.165877,5.8517067 Z M 8.1495595,39.846876 C 6.7304232,33.672939 4.9157574,23.815507 3.4285463,14.50963 l 3.9215068,-6.6211449 7.5399059,-1.166216 4.416416,3.6024999 c 0.403481,0.329939 0.940129,0.447206 1.445472,0.31851 4.818902,-1.2362783 14.432357,-3.6571578 16.325035,-3.972687 0.07503,-0.012422 0.147082,-0.021863 0.21317,-0.02882 l -0.211678,2.3865936 c -3.98511,1.2337942 -7.694442,2.3821222 -7.694442,2.3821222 -0.165963,0.05118 -0.313542,0.148571 -0.427331,0.280249 -0.170436,0.198758 -4.06511,4.731448 -4.77915,5.584619 -0.826339,0.515779 -6.681766,2.764731 -12.008994,4.695175 C 11.702866,22.0714 9.8156532,22.57426 9.6551557,24.097744 8.876022,31.379762 8.4139083,36.384503 8.1495595,39.846877 Z"
     id="path3"
     inkscape:connector-curvature="0" /><ellipse
     style="fill:#ffffff;fill-opacity:0.49019608;fill-rule:evenodd;stroke:#88aa00;stroke-width:0.3713536px;stroke-linecap:butt;stroke-linejoin:miter;stroke-opacity:1"
     id="path3340"
     cx="37.085922"
     cy="36.778736"
     rx="12.399639"
     ry="12.684892" /><g
     transform="matrix(0.3771951,0,0,0.3771951,9.5739086,26.249077)"
     id="g3"
     style="fill:#88aa00;fill-opacity:1;stroke:#000000;stroke-opacity:1"><path
       style="fill:#88aa00;fill-opacity:1;stroke:#000000;stroke-opacity:1"
       inkscape:connector-curvature="0"
       d="m 94.404,5.593 c -0.79,-0.79 -2.072,-0.79 -2.861,0 L 76.375,20.76 c -7.113,-5.691 -17.52,-5.246 -24.112,1.348 -0.098,0.098 -8.825,8.832 -8.921,8.931 l 4.638,4.637 5.728,-5.729 c 1.396,-1.394 3.658,-1.394 5.058,0 1.394,1.396 1.394,3.662 0,5.055 l -5.731,5.73 6.235,6.233 5.73,-5.729 c 1.396,-1.394 3.654,-1.394 5.054,0 1.396,1.398 1.396,3.661 0,5.059 l -5.729,5.729 4.645,4.642 c 0.098,-0.095 8.825,-8.826 8.923,-8.925 6.598,-6.593 7.042,-17.001 1.348,-24.116 L 94.404,8.46 c 0.793,-0.792 0.793,-2.076 0,-2.867 z"
       id="path5" /></g></svg>