<?xml version="1.0" encoding="UTF-8" standalone="no"?>
<svg
   xmlns:dc="http://purl.org/dc/elements/1.1/"
   xmlns:cc="http://creativecommons.org/ns#"
   xmlns:rdf="http://www.w3.org/1999/02/22-rdf-syntax-ns#"
   xmlns:svg="http://www.w3.org/2000/svg"
   xmlns="http://www.w3.org/2000/svg"
   xmlns:sodipodi="http://sodipodi.sourceforge.net/DTD/sodipodi-0.dtd"
   xmlns:inkscape="http://www.inkscape.org/namespaces/inkscape"
   version="1.0"
   id="Layer_1"
   x="0px"
   y="0px"
   width="47.199px"
   height="59.889px"
   viewBox="0 0 47.199 59.889"
   enable-background="new 0 0 47.199 59.889"
   xml:space="preserve"
   inkscape:version="0.91pre2 r13516"
   sodipodi:docname="MobileAction.svg"><metadata
     id="metadata246"><rdf:RDF><cc:Work
         rdf:about=""><dc:format>image/svg+xml</dc:format><dc:type
           rdf:resource="http://purl.org/dc/dcmitype/StillImage" /><dc:title></dc:title></cc:Work></rdf:RDF></metadata><defs
     id="defs244" /><sodipodi:namedview
     pagecolor="#ffffff"
     bordercolor="#666666"
     borderopacity="1"
     objecttolerance="10"
     gridtolerance="10"
     guidetolerance="10"
     inkscape:pageopacity="0"
     inkscape:pageshadow="2"
     inkscape:window-width="1600"
     inkscape:window-height="837"
     id="namedview242"
     showgrid="false"
     inkscape:zoom="3.9406235"
     inkscape:cx="23.599501"
     inkscape:cy="29.9445"
     inkscape:window-x="-8"
     inkscape:window-y="-8"
     inkscape:window-maximized="1"
     inkscape:current-layer="Layer_1" /><path
     inkscape:connector-curvature="0"
     style="fill:#010101"
     d="m 37.748404,0.26670457 -27.358243,0 c -1.995862,0 -3.6124547,2.24546543 -3.6124547,5.01413463 l 0,49.8372468 c 0,2.76628 1.6160281,5.011747 3.6124547,5.011747 l 27.358243,0 c 1.993611,0 3.610767,-2.245467 3.610767,-5.011747 l 0,-49.8372468 C 41.358607,2.51217 39.742015,0.26670457 37.748404,0.26670457 Z m -17.60048,5.84323893 7.09208,0 c 0.568636,0 1.030434,0.4902796 1.030434,1.092503 0,0.6004269 -0.461798,1.0919032 -1.030434,1.0919032 l -7.09208,0 c -0.569766,0 -1.030434,-0.4908774 -1.030434,-1.0919032 0,-0.6010267 0.460668,-1.092503 1.030434,-1.092503 z M 23.603246,57.04628 c -1.708161,0 -3.091869,-1.464848 -3.091869,-3.272717 0,-1.810261 1.383708,-3.276904 3.091869,-3.276904 1.70816,0 3.091868,1.466045 3.091868,3.276904 0,1.808467 -1.383143,3.272717 -3.091868,3.272717 z m 15.74197,-9.439218 -30.5524236,0 0,-35.589226 30.5524236,0 0,35.589226 z"
     id="path3" /><path
     inkscape:connector-curvature="0"
     style="fill:#010101"
     d="m 13.176235,19.372021 21.785531,0 c 0.972219,0 1.762422,-0.832696 1.762422,-1.867729 0,-1.030843 -0.789638,-1.867731 -1.762422,-1.867731 l -21.785531,0 c -0.97447,0 -1.764681,0.836888 -1.764681,1.867731 0,1.033836 0.790775,1.867729 1.764681,1.867729 z"
     id="path5" /><path
     inkscape:connector-curvature="0"
     style="fill:#010101"
     d="m 34.961201,23.217029 -21.784966,0 c -0.97447,0 -1.764681,0.837487 -1.764681,1.868928 0,1.033238 0.790211,1.867729 1.764681,1.867729 l 21.784966,0 c 0.973349,0 1.763552,-0.834491 1.763552,-1.867729 0,-1.031441 -0.790203,-1.868928 -1.763552,-1.868928 z"
     id="path7" /><path
     inkscape:connector-curvature="0"
     style="fill:#010101"
     d="m 27.053477,30.797497 -13.877242,0 c -0.97447,0 -1.764681,0.836887 -1.764681,1.871321 0,1.030245 0.790211,1.868331 1.764681,1.868331 l 13.876678,0 c 0.972212,0 1.762422,-0.838086 1.762422,-1.868331 5.65e-4,-1.034434 -0.79021,-1.871321 -1.761858,-1.871321 z"
     id="path9" /></svg>