<?xml version="1.0" encoding="UTF-8" standalone="no"?>
<svg
   xmlns:dc="http://purl.org/dc/elements/1.1/"
   xmlns:cc="http://creativecommons.org/ns#"
   xmlns:rdf="http://www.w3.org/1999/02/22-rdf-syntax-ns#"
   xmlns:svg="http://www.w3.org/2000/svg"
   xmlns="http://www.w3.org/2000/svg"
   xmlns:sodipodi="http://sodipodi.sourceforge.net/DTD/sodipodi-0.dtd"
   xmlns:inkscape="http://www.inkscape.org/namespaces/inkscape"
   version="1.1"
   id="Layer_1"
   x="0px"
   y="0px"
   width="50"
   height="50"
   viewBox="0 0 50 50"
   enable-background="new 0 0 100 100"
   xml:space="preserve"
   inkscape:version="0.91pre2 r13516"
   sodipodi:docname="SOAPReceiveAdapter.svg"><metadata
     id="metadata4176"><rdf:RDF><cc:Work
         rdf:about=""><dc:format>image/svg+xml</dc:format><dc:type
           rdf:resource="http://purl.org/dc/dcmitype/StillImage" /><dc:title></dc:title></cc:Work></rdf:RDF></metadata><defs
     id="defs4174" /><sodipodi:namedview
     pagecolor="#ffffff"
     bordercolor="#666666"
     borderopacity="1"
     objecttolerance="10"
     gridtolerance="10"
     guidetolerance="10"
     inkscape:pageopacity="0"
     inkscape:pageshadow="2"
     inkscape:window-width="1600"
     inkscape:window-height="837"
     id="namedview4172"
     showgrid="false"
     inkscape:zoom="9.44"
     inkscape:cx="27.52093"
     inkscape:cy="25.518359"
     inkscape:window-x="-8"
     inkscape:window-y="-8"
     inkscape:window-maximized="1"
     inkscape:current-layer="Layer_1" /><path
     style="fill:#ffffff;fill-opacity:1;fill-rule:evenodd;stroke:none;stroke-width:1px;stroke-linecap:butt;stroke-linejoin:miter;stroke-opacity:1"
     d="m 0.70517524,0.70758828 49.13793876,0 0,48.99081372 -49.13793876,0 z"
     id="rect4139"
     inkscape:connector-curvature="0" /><path
     inkscape:connector-curvature="0"
     d="m 25.11974,35.872973 c -5.039112,0 -10.078223,0 -15.117335,0 -5.189159,0 -9.29047048,-4.201343 -9.15292651,-9.390503 0.10003216,-3.851231 2.72587181,-7.289831 6.42705511,-8.402687 0.2000638,-0.06252 0.300096,-0.162552 0.3751201,-0.350112 1.6380238,-3.663671 4.4639273,-5.714327 8.4652073,-6.089447 1.100351,-0.100032 2.175695,0.02501 3.238535,0.312599 0.162552,0.03751 0.237576,0.01251 0.337608,-0.125039 3.050976,-4.463928 7.277327,-6.6021116 12.679055,-6.2269915 6.314519,0.4376399 11.54119,5.4767515 12.35395,11.7662625 0.05002,0.425136 0.08753,0.850272 0.100033,1.275408 0.0125,0.175056 0.07502,0.287592 0.225071,0.37512 2.300736,1.450464 3.726192,3.513624 4.213848,6.201983 0.912792,5.0016 -2.650848,9.890663 -7.677455,10.553375 -0.450144,0.06252 -0.912792,0.08753 -1.362936,0.08753 -5.039112,0.01251 -10.065719,0.01251 -15.10483,0.01251 z M 21.005924,16.104151 c -0.08753,-0.06252 -0.175056,-0.12504 -0.25008,-0.175056 -3.00096,-2.113175 -7.002239,-1.563 -9.315479,1.287912 -0.762744,0.9378 -1.225392,2.025648 -1.412952,3.226032 -0.02501,0.137543 0,0.262584 -0.2250714,0.287592 -0.5251683,0.05002 -1.0753442,0.100032 -1.5880082,0.25008 -2.8509115,0.81276 -4.8515512,3.726191 -4.2138475,6.989735 0.5751839,2.863416 3.0634797,4.864055 5.9769115,4.864055 10.0907266,0 20.1814536,0 30.2721806,0 0.350112,0 0.700224,-0.03751 1.050336,-0.08753 3.163511,-0.500159 5.439239,-3.501119 5.001599,-6.664631 -0.350112,-2.588328 -1.825583,-4.276368 -4.288872,-5.101631 -0.325103,-0.112536 -0.337607,-0.100033 -0.287591,-0.462648 0.112536,-0.950304 0.12504,-1.900608 -0.02501,-2.838408 -0.387624,-2.513304 -1.50048,-4.651487 -3.413592,-6.352031 -2.275727,-2.0256482 -4.951583,-2.9259361 -7.990055,-2.68836 -2.025648,0.1500477 -3.851232,0.862776 -5.476751,2.075664 -1.43796,1.075343 -2.538312,2.425776 -3.276048,4.063799 -0.18756,0.412632 -0.350112,0.862776 -0.537672,1.325424 z"
     id="path5" /><path
     style="fill:#2799ff;fill-opacity:1;stroke:none"
     d="M 8.388469,32.512603 C 6.5456072,32.010686 4.9241253,30.481839 4.3035059,28.661011 3.9928687,27.749636 3.9941234,25.779732 4.3059159,24.874023 5.0763645,22.636006 6.6283643,21.43459 9.5074067,20.847506 c 0.4208142,-0.08581 0.5910603,-0.277368 0.7018253,-0.789679 0.236263,-1.092771 1.04262,-2.51531 1.898704,-3.349613 2.032486,-1.980773 4.976531,-2.487253 7.454867,-1.282501 0.686593,0.333761 1.29866,0.635901 1.360149,0.67142 0.06149,0.03552 0.435995,-0.614825 0.832234,-1.445211 1.982228,-4.154087 6.713562,-6.598526 11.214791,-5.7941113 5.098546,0.9111603 8.939189,5.6291723 8.724029,10.7169743 l -0.05341,1.263065 1.121709,0.571279 c 2.325143,1.184177 3.403119,2.913552 3.4049,5.462418 0.0017,2.382271 -1.26668,4.314412 -3.509909,5.346848 l -1.040292,0.478789 -16.124533,0.04109 C 12.920229,32.770314 9.1521586,32.72059 8.388469,32.512603 Z"
     id="path4190"
     inkscape:connector-curvature="0" /><path
     inkscape:connector-curvature="0"
     d="m 35.675675,11.392571 c -1.393986,-0.919182 -3.009778,-1.40494 -4.672807,-1.40494 -2.870335,0 -5.526231,1.428746 -7.104053,3.82164 -2.580325,3.913273 -1.496191,9.196721 2.416893,11.777232 1.393789,0.918994 3.009395,1.405126 4.672041,1.405126 2.870531,0 5.526614,-1.429122 7.104626,-3.822585 2.580128,-3.912705 1.496009,-9.195587 -2.4167,-11.776473 z m 2.657024,6.036553 c -0.374662,-0.63842 -0.875913,-1.288742 -1.488259,-1.922817 0.0025,-0.02475 0.0066,-0.05007 0.0092,-0.07501 0.05671,-0.539228 0.05422,-1.038589 -0.0025,-1.493173 0.795614,1.025364 1.298947,2.232863 1.48165,3.490998 z m -3.097256,1.247555 c -0.730424,-0.714373 -1.603316,-1.427801 -2.589767,-2.099285 l 1.593693,-2.4167 c 0.713994,0.494072 1.359025,1.032166 1.91715,1.586698 -0.144163,0.935618 -0.45893,1.931885 -0.921076,2.929287 z m -2.279335,3.499502 c -0.767471,-0.701713 -1.68155,-1.411932 -2.643047,-2.061499 l 1.974958,-2.995038 c 1.043123,0.710973 1.929239,1.45293 2.643238,2.173538 -0.227675,0.4338 -0.481792,0.864955 -0.761421,1.289121 -0.378816,0.574559 -0.787863,1.106607 -1.213728,1.593878 z m -5.164803,3.002217 c -0.205186,-0.09844 -0.405266,-0.208967 -0.601953,-0.326674 l 2.764917,-4.193093 c 1.022712,0.691138 1.879165,1.371689 2.56142,1.997074 -1.51018,1.56837 -3.18624,2.533461 -4.552262,2.533461 -0.05914,0 -0.114869,-0.0072 -0.172122,-0.01075 z M 26.568691,18.74224 c 0.895567,0.40187 1.866516,0.933352 2.843136,1.558925 l -2.766803,4.195734 c -0.186857,-0.135467 -0.365405,-0.278304 -0.536015,-0.428133 -0.603092,-1.196729 -0.42171,-3.208346 0.459682,-5.326526 z m 0.894055,-6.777567 c 0.436063,-0.06858 0.939965,-0.06991 1.501867,1.89e-4 0.569453,0.07123 1.16877,0.2135 1.781491,0.417553 -0.766896,0.534693 -1.527183,1.223369 -2.235325,2.035612 -0.492938,-0.177979 -0.973217,-0.323839 -1.429878,-0.425488 -0.705485,-0.157006 -1.32785,-0.208775 -1.854231,-0.161541 0.622173,-0.772187 1.382264,-1.404372 2.236076,-1.866325 z m 6.736948,-0.164186 c 0.20556,0.09863 0.405454,0.209154 0.602327,0.327051 l -0.746868,1.132868 c -0.608189,-0.384298 -1.228659,-0.719095 -1.847425,-0.999478 0.636904,-0.303434 1.255484,-0.47121 1.820032,-0.47121 0.05895,0 0.114682,0.007 0.171934,0.01077 z m -0.50428,2.005383 -1.593304,2.415944 c -0.985125,-0.628407 -1.985171,-1.154976 -2.947616,-1.554201 0.747624,-0.832836 1.545126,-1.516979 2.333377,-2.00935 0.735152,0.30041 1.478808,0.688299 2.207543,1.147607 z m -9.015719,0.79656 c 0.511646,-0.195551 1.292713,-0.191205 2.2597,0.024 0.362184,0.08068 0.740626,0.19026 1.128707,0.322516 -0.273959,0.345756 -0.53847,0.708894 -0.789193,1.089225 -0.406028,0.616125 -0.756693,1.237729 -1.05125,1.853666 -0.225775,-0.09012 -0.447966,-0.174578 -0.660331,-0.245808 -0.783522,-0.262623 -1.4142,-0.376363 -1.891642,-0.344244 0.14982,-0.932784 0.481031,-1.849887 1.004009,-2.699351 z m 3.141464,1.793584 c 0.281712,-0.427188 0.580983,-0.829435 0.890275,-1.209579 0.982286,0.391101 2.014455,0.928817 3.033013,1.578007 l -1.974963,2.994659 c -1.005148,-0.644277 -2.007654,-1.193328 -2.936469,-1.609936 0.278118,-0.586273 0.607247,-1.175758 0.988144,-1.753151 z m 6.776054,-2.777571 0.74895,-1.136081 c 0.190829,0.138113 0.372776,0.284351 0.546974,0.437012 0.261114,0.517501 0.379955,1.194842 0.345947,1.998393 -0.493694,-0.450428 -1.043502,-0.887062 -1.641871,-1.299324 z m -1.718195,-2.301069 c -0.468569,0.13509 -0.952624,0.344433 -1.440652,0.623115 -0.811108,-0.308535 -1.60937,-0.518633 -2.361904,-0.615747 0.620278,-0.165698 1.266448,-0.25431 1.926406,-0.25431 0.63823,0 1.267204,0.08691 1.87615,0.246942 z m -9.279852,6.647199 c 0.303243,-0.05063 0.852672,-0.007 1.761655,0.297577 0.193471,0.06499 0.395068,0.140947 0.600436,0.22238 -0.706815,1.670587 -0.990221,3.267107 -0.82849,4.547348 -1.121534,-1.450285 -1.658305,-3.263894 -1.533601,-5.067305 z m 5.512443,7.697129 c 1.257187,-0.362572 2.624717,-1.272119 3.871137,-2.560673 0.83529,0.832457 1.325203,1.529447 1.446877,1.963816 -1.045009,0.54584 -2.220575,0.843987 -3.441874,0.843987 -0.638038,0 -1.267008,-0.08672 -1.87614,-0.24713 z m 5.877083,-0.921263 c -0.229178,-0.617636 -0.794291,-1.353358 -1.56402,-2.117613 0.453823,-0.514852 0.887814,-1.07694 1.287419,-1.682488 0.249585,-0.378629 0.478767,-0.763116 0.688864,-1.149871 1.042746,1.163286 1.612769,2.235129 1.64848,2.980298 -0.562093,0.795051 -1.263423,1.460111 -2.060743,1.969674 z m 2.554813,-2.766424 c -0.274518,-0.845494 -0.90595,-1.815122 -1.824193,-2.801753 0.462715,-0.955646 0.79864,-1.916961 0.990226,-2.837086 0.869114,0.986442 1.455198,1.993291 1.666807,2.872795 -0.09069,0.946954 -0.364266,1.887107 -0.83284,2.766044 z"
     id="path13"
     style="fill:#ffffff;fill-opacity:1" /><ellipse
     style="fill:#ffffff;fill-opacity:0.49019608;fill-rule:evenodd;stroke:#88aa00;stroke-width:0.36696038px;stroke-linecap:butt;stroke-linejoin:miter;stroke-opacity:1"
     id="path3340"
     cx="37.125858"
     cy="37.200115"
     rx="12.252948"
     ry="12.534826" /><g
     transform="matrix(0.37273278,0,0,0.37273278,9.9393243,26.795021)"
     id="g3"
     style="fill:#88aa00;fill-opacity:1;stroke:#000000;stroke-opacity:1"><path
       style="fill:#88aa00;fill-opacity:1;stroke:#000000;stroke-opacity:1"
       inkscape:connector-curvature="0"
       d="m 94.404,5.593 c -0.79,-0.79 -2.072,-0.79 -2.861,0 L 76.375,20.76 c -7.113,-5.691 -17.52,-5.246 -24.112,1.348 -0.098,0.098 -8.825,8.832 -8.921,8.931 l 4.638,4.637 5.728,-5.729 c 1.396,-1.394 3.658,-1.394 5.058,0 1.394,1.396 1.394,3.662 0,5.055 l -5.731,5.73 6.235,6.233 5.73,-5.729 c 1.396,-1.394 3.654,-1.394 5.054,0 1.396,1.398 1.396,3.661 0,5.059 l -5.729,5.729 4.645,4.642 c 0.098,-0.095 8.825,-8.826 8.923,-8.925 6.598,-6.593 7.042,-17.001 1.348,-24.116 L 94.404,8.46 c 0.793,-0.792 0.793,-2.076 0,-2.867 z"
       id="path5-1" /></g></svg>